<svg width="60" height="60" viewBox="0 0 60 60" fill="none" xmlns="http://www.w3.org/2000/svg">
<path opacity="0.25" fill-rule="evenodd" clip-rule="evenodd" d="M30 55.2003C43.9176 55.2003 55.2 43.9179 55.2 30.0003C55.2 16.0827 43.9176 4.80029 30 4.80029C16.0824 4.80029 4.79999 16.0827 4.79999 30.0003C4.79999 43.9179 16.0824 55.2003 30 55.2003Z" stroke="black"/>
<path d="M55.2 30.0003C55.2 16.0827 43.9176 4.80029 30 4.80029" stroke="black" stroke-linecap="round"/>
<path fill-rule="evenodd" clip-rule="evenodd" d="M22.2 19.8003C21.8686 19.8003 21.6 20.0689 21.6 20.4003V39.6003C21.6 39.9317 21.8686 40.2003 22.2 40.2003H26.4C26.7314 40.2003 27 39.9317 27 39.6003V20.4003C27 20.0689 26.7314 19.8003 26.4 19.8003H22.2ZM33.6 19.8003C33.2686 19.8003 33 20.0689 33 20.4003V39.6003C33 39.9317 33.2686 40.2003 33.6 40.2003H37.8C38.1314 40.2003 38.4 39.9317 38.4 39.6003V20.4003C38.4 20.0689 38.1314 19.8003 37.8 19.8003H33.6Z" fill="black"/>
</svg>
