<svg width="60" height="60" viewBox="0 0 60 60" fill="none" xmlns="http://www.w3.org/2000/svg">
<path opacity="0.25" fill-rule="evenodd" clip-rule="evenodd" d="M30 55.1998C43.9176 55.1998 55.2 43.9174 55.2 29.9998C55.2 16.0822 43.9176 4.7998 30 4.7998C16.0824 4.7998 4.79999 16.0822 4.79999 29.9998C4.79999 43.9174 16.0824 55.1998 30 55.1998Z" stroke="black"/>
<path d="M55.2 29.9998C55.2 16.0822 43.9176 4.7998 30 4.7998" stroke="black" stroke-linecap="round"/>
<path fill-rule="evenodd" clip-rule="evenodd" d="M23.64 40.6712L40.92 30.8207C41.56 30.4558 41.56 29.5438 40.92 29.1788L23.64 19.3281C22.9999 18.9634 22.2 19.4192 22.2 20.1489V39.8504C22.2 40.5801 22.9999 41.0362 23.64 40.6712Z" fill="black"/>
</svg>
